<svg viewBox="0 0 64 64" fill="none" xmlns="http://www.w3.org/2000/svg">
  <defs>
    <linearGradient id="bg" x1="0" y1="0" x2="64" y2="64" gradientUnits="userSpaceOnUse">
      <stop stop-color="#0a3529"/>
      <stop offset="1" stop-color="#0f6b52"/>
    </linearGradient>
    <linearGradient id="tl" x1="20" y1="10" x2="38" y2="28" gradientUnits="userSpaceOnUse">
      <stop stop-color="#5eead4"/>
      <stop offset="1" stop-color="#14b8a6"/>
    </linearGradient>
    <linearGradient id="vl" x1="42" y1="18" x2="36" y2="48" gradientUnits="userSpaceOnUse">
      <stop stop-color="#c4b5fd"/>
      <stop offset="1" stop-color="#8b5cf6"/>
    </linearGradient>
    <linearGradient id="em" x1="12" y1="36" x2="32" y2="50" gradientUnits="userSpaceOnUse">
      <stop stop-color="#6ee7b7"/>
      <stop offset="1" stop-color="#10b981"/>
    </linearGradient>
    <linearGradient id="gd" x1="26" y1="24" x2="38" y2="40" gradientUnits="userSpaceOnUse">
      <stop stop-color="#fde68a"/>
      <stop offset="1" stop-color="#f59e0b"/>
    </linearGradient>
  </defs>
  <rect width="64" height="64" rx="16" fill="url(#bg)"/>
  <path d="M18.5 18 A20 20 0 0 1 45.5 18" stroke="url(#tl)" stroke-width="3" stroke-linecap="round" fill="none"/>
  <path d="M47 22 A20 20 0 0 1 33 50" stroke="url(#vl)" stroke-width="3" stroke-linecap="round" fill="none"/>
  <path d="M29 50 A20 20 0 0 1 15 22" stroke="url(#em)" stroke-width="3" stroke-linecap="round" fill="none"/>
  <circle cx="18" cy="17" r="4" fill="#2dd4bf"/>
  <circle cx="18" cy="17" r="1.8" fill="white" opacity="0.85"/>
  <circle cx="46" cy="17" r="4" fill="#14b8a6"/>
  <circle cx="46" cy="17" r="1.8" fill="white" opacity="0.85"/>
  <circle cx="47" cy="34" r="3.5" fill="#a78bfa"/>
  <circle cx="47" cy="34" r="1.5" fill="white" opacity="0.8"/>
  <circle cx="31" cy="51" r="3.5" fill="#34d399"/>
  <circle cx="31" cy="51" r="1.5" fill="white" opacity="0.8"/>
  <circle cx="15" cy="34" r="3.5" fill="#6ee7b7"/>
  <circle cx="15" cy="34" r="1.5" fill="white" opacity="0.8"/>
  <circle cx="32" cy="30" r="8.5" fill="url(#gd)"/>
  <circle cx="32" cy="30" r="5.5" fill="white" opacity="0.92"/>
  <circle cx="32" cy="30" r="3" fill="#f59e0b"/>
  <circle cx="30" cy="28" r="1.2" fill="white" opacity="0.7"/>
</svg>
